<?xml version="1.0" encoding="UTF-8"?>
<!DOCTYPE svg PUBLIC "-//W3C//DTD SVG 1.1//EN" "http://www.w3.org/Graphics/SVG/1.1/DTD/svg11.dtd">
<svg xmlns="http://www.w3.org/2000/svg" version="1.1" width="500px" height="500px" style="shape-rendering:geometricPrecision; text-rendering:geometricPrecision; image-rendering:optimizeQuality; fill-rule:evenodd; clip-rule:evenodd" xmlns:xlink="http://www.w3.org/1999/xlink">
<g><path style="opacity:1" fill="#18305d" d="M -0.5,-0.5 C 166.167,-0.5 332.833,-0.5 499.5,-0.5C 499.5,166.167 499.5,332.833 499.5,499.5C 332.833,499.5 166.167,499.5 -0.5,499.5C -0.5,332.833 -0.5,166.167 -0.5,-0.5 Z"/></g>
<g><path style="opacity:1" fill="#4a4f60" d="M 106.5,201.5 C 126.66,200.503 146.993,200.17 167.5,200.5C 167.5,201.833 167.5,203.167 167.5,204.5C 167.167,204.5 166.833,204.5 166.5,204.5C 166.5,203.5 166.5,202.5 166.5,201.5C 146.5,201.5 126.5,201.5 106.5,201.5 Z"/></g>
<g><path style="opacity:1" fill="#daab67" d="M 106.5,201.5 C 126.5,201.5 146.5,201.5 166.5,201.5C 166.5,202.5 166.5,203.5 166.5,204.5C 168.607,205.468 170.941,205.802 173.5,205.5C 173.5,208.5 173.5,211.5 173.5,214.5C 171.167,214.5 168.833,214.5 166.5,214.5C 166.5,212.833 166.5,211.167 166.5,209.5C 146.674,208.503 126.674,208.17 106.5,208.5C 106.5,210.5 106.5,212.5 106.5,214.5C 104.167,214.5 101.833,214.5 99.5,214.5C 99.5,211.167 99.5,207.833 99.5,204.5C 101.833,204.5 104.167,204.5 106.5,204.5C 106.5,203.5 106.5,202.5 106.5,201.5 Z"/></g>
<g><path style="opacity:1" fill="#8d7a63" d="M 166.5,204.5 C 166.833,204.5 167.167,204.5 167.5,204.5C 169.833,204.5 172.167,204.5 174.5,204.5C 174.5,208.167 174.5,211.833 174.5,215.5C 171.615,215.806 168.948,215.473 166.5,214.5C 168.833,214.5 171.167,214.5 173.5,214.5C 173.5,211.5 173.5,208.5 173.5,205.5C 170.941,205.802 168.607,205.468 166.5,204.5 Z"/></g>
<g><path style="opacity:1" fill="#4d5160" d="M 166.5,209.5 C 146.833,209.5 127.167,209.5 107.5,209.5C 107.784,211.415 107.451,213.081 106.5,214.5C 106.5,212.5 106.5,210.5 106.5,208.5C 126.674,208.17 146.674,208.503 166.5,209.5 Z"/></g>
<g><path style="opacity:1" fill="#d0a467" d="M 116.5,213.5 C 119.167,213.5 121.833,213.5 124.5,213.5C 124.5,241.5 124.5,269.5 124.5,297.5C 121.833,297.5 119.167,297.5 116.5,297.5C 116.5,269.5 116.5,241.5 116.5,213.5 Z"/></g>
<g><path style="opacity:1" fill="#796d62" d="M 133.5,213.5 C 133.5,237.167 133.5,260.833 133.5,284.5C 135.833,284.5 138.167,284.5 140.5,284.5C 138.052,285.473 135.385,285.806 132.5,285.5C 132.169,261.328 132.502,237.328 133.5,213.5 Z"/></g>
<g><path style="opacity:1" fill="#daac67" d="M 133.5,213.5 C 135.833,213.5 138.167,213.5 140.5,213.5C 140.5,237.167 140.5,260.833 140.5,284.5C 138.167,284.5 135.833,284.5 133.5,284.5C 133.5,260.833 133.5,237.167 133.5,213.5 Z"/></g>
<g><path style="opacity:1" fill="#aa8c64" d="M 150.5,213.5 C 150.5,234.167 150.5,254.833 150.5,275.5C 152.5,275.5 154.5,275.5 156.5,275.5C 156.5,254.833 156.5,234.167 156.5,213.5C 157.497,234.327 157.831,255.327 157.5,276.5C 154.833,276.5 152.167,276.5 149.5,276.5C 149.169,255.327 149.503,234.327 150.5,213.5 Z"/></g>
<g><path style="opacity:1" fill="#daac67" d="M 150.5,213.5 C 152.5,213.5 154.5,213.5 156.5,213.5C 156.5,234.167 156.5,254.833 156.5,275.5C 154.5,275.5 152.5,275.5 150.5,275.5C 150.5,254.833 150.5,234.167 150.5,213.5 Z"/></g>
<g><path style="opacity:1" fill="#d3a767" d="M 187.5,237.5 C 195.5,237.5 203.5,237.5 211.5,237.5C 211.5,238.5 211.5,239.5 211.5,240.5C 204.646,240.176 197.979,240.509 191.5,241.5C 191.5,243.167 191.5,244.833 191.5,246.5C 197.5,246.5 203.5,246.5 209.5,246.5C 209.5,247.833 209.5,249.167 209.5,250.5C 203.5,250.5 197.5,250.5 191.5,250.5C 191.5,252.167 191.5,253.833 191.5,255.5C 198.167,255.5 204.833,255.5 211.5,255.5C 211.5,256.5 211.5,257.5 211.5,258.5C 203.5,258.5 195.5,258.5 187.5,258.5C 187.5,251.5 187.5,244.5 187.5,237.5 Z"/></g>
<g><path style="opacity:1" fill="#cea467" d="M 227.5,237.5 C 229.39,237.297 230.89,237.963 232,239.5C 236.167,245.833 240.333,252.167 244.5,258.5C 243.277,259.614 241.944,259.781 240.5,259C 239.743,257.488 238.743,256.154 237.5,255C 231.804,254.17 226.137,254.337 220.5,255.5C 219.187,258.725 216.853,259.891 213.5,259C 218.809,252.203 223.476,245.036 227.5,237.5 Z"/></g>
<g><path style="opacity:1" fill="#d6a967" d="M 325.5,255.5 C 325.5,256.5 325.5,257.5 325.5,258.5C 318.833,258.5 312.167,258.5 305.5,258.5C 305.5,251.5 305.5,244.5 305.5,237.5C 306.833,237.5 308.167,237.5 309.5,237.5C 309.5,243.5 309.5,249.5 309.5,255.5C 314.833,255.5 320.167,255.5 325.5,255.5 Z"/></g>
<g><path style="opacity:1" fill="#d1a667" d="M 330.5,258.5 C 329.209,258.737 328.209,258.404 327.5,257.5C 331.619,250.239 336.453,243.572 342,237.5C 347.388,243.728 352.221,250.395 356.5,257.5C 353.825,258.996 351.825,258.329 350.5,255.5C 344.863,254.337 339.196,254.17 333.5,255C 332.837,256.518 331.837,257.685 330.5,258.5 Z"/></g>
<g><path style="opacity:1" fill="#cea367" d="M 357.5,237.5 C 358.978,237.238 360.311,237.571 361.5,238.5C 363.579,242.993 365.912,247.326 368.5,251.5C 371.094,246.638 373.927,241.971 377,237.5C 377.772,237.645 378.439,237.978 379,238.5C 381.01,243.196 383.51,247.529 386.5,251.5C 388.763,247.21 390.929,242.877 393,238.5C 394.494,237.253 395.994,237.253 397.5,238.5C 394.023,245.288 390.689,252.121 387.5,259C 386.551,259.617 385.718,259.451 385,258.5C 382.754,253.674 380.254,249.008 377.5,244.5C 374.737,249.701 371.737,254.701 368.5,259.5C 364.082,252.601 360.415,245.268 357.5,237.5 Z"/></g>
<g><path style="opacity:1" fill="#6e6662" d="M 187.5,237.5 C 195.65,236.507 203.983,236.174 212.5,236.5C 212.5,238.167 212.5,239.833 212.5,241.5C 205.5,241.5 198.5,241.5 191.5,241.5C 197.979,240.509 204.646,240.176 211.5,240.5C 211.5,239.5 211.5,238.5 211.5,237.5C 203.5,237.5 195.5,237.5 187.5,237.5 Z"/></g>
<g><path style="opacity:1" fill="#22345d" d="M 228.5,242.5 C 230.636,244.812 232.636,247.312 234.5,250C 231.118,250.824 227.784,250.657 224.5,249.5C 226.11,247.275 227.443,244.941 228.5,242.5 Z"/></g>
<g><path style="opacity:1" fill="#22345d" d="M 341.5,242.5 C 343.39,244.59 345.057,246.923 346.5,249.5C 343.216,250.657 339.882,250.824 336.5,250C 338.389,247.618 340.055,245.118 341.5,242.5 Z"/></g>
<g><path style="opacity:1" fill="#d0a567" d="M 274.5,238.5 C 275.946,237.387 277.613,237.22 279.5,238C 282.646,240.312 285.646,242.812 288.5,245.5C 291.354,242.812 294.354,240.312 297.5,238C 299.167,237.333 300.833,237.333 302.5,238C 298.966,241.869 295.133,245.369 291,248.5C 290.501,252.152 290.335,255.818 290.5,259.5C 289.167,259.5 287.833,259.5 286.5,259.5C 286.665,255.818 286.499,252.152 286,248.5C 281.999,245.331 278.166,241.997 274.5,238.5 Z"/></g>
<g><path style="opacity:1" fill="#c79f67" d="M 249.5,237.5 C 256.175,237.334 262.842,237.5 269.5,238C 271.607,239.264 272.607,241.097 272.5,243.5C 265.302,241.812 257.969,241.145 250.5,241.5C 250.5,243.167 250.5,244.833 250.5,246.5C 256.842,246.334 263.175,246.5 269.5,247C 272.961,249.987 273.461,253.487 271,257.5C 270.25,258.126 269.416,258.626 268.5,259C 262.167,259.667 255.833,259.667 249.5,259C 247.393,257.736 246.393,255.903 246.5,253.5C 253.282,255.498 260.282,255.998 267.5,255C 268.38,253.644 268.714,252.144 268.5,250.5C 262.158,250.666 255.825,250.5 249.5,250C 245.558,245.791 245.558,241.624 249.5,237.5 Z"/></g>
<g><path style="opacity:1" fill="#7e7162" d="M 211.5,255.5 C 212.434,256.568 212.768,257.901 212.5,259.5C 203.983,259.826 195.65,259.493 187.5,258.5C 195.5,258.5 203.5,258.5 211.5,258.5C 211.5,257.5 211.5,256.5 211.5,255.5 Z"/></g>
<g><path style="opacity:1" fill="#7a6e62" d="M 325.5,255.5 C 326.167,256.167 326.833,256.833 327.5,257.5C 328.209,258.404 329.209,258.737 330.5,258.5C 322.167,259.833 313.833,259.833 305.5,258.5C 312.167,258.5 318.833,258.5 325.5,258.5C 325.5,257.5 325.5,256.5 325.5,255.5 Z"/></g>
</svg>
